<?xml version="1.0" encoding="utf-8"?>
<!-- Generator: Adobe Illustrator 24.0.2, SVG Export Plug-In . SVG Version: 6.00 Build 0)  -->
<svg version="1.1" id="Layer_1" xmlns="http://www.w3.org/2000/svg" xmlns:xlink="http://www.w3.org/1999/xlink" x="0px" y="0px"
	 viewBox="0 0 184.37 215.68" style="enable-background:new 0 0 184.37 215.68;" xml:space="preserve">
<style type="text/css">
	.st0{fill:none;stroke:#231F20;stroke-miterlimit:10;}
	.st1{fill:none;stroke:#224652;stroke-width:4;stroke-miterlimit:10;}
	.st2{fill:#FFFFFF;}
	.st3{fill:none;stroke:#224652;stroke-width:2;stroke-miterlimit:10;}
	.st4{fill:#99C0A3;stroke:#224652;stroke-width:10;stroke-miterlimit:10;}
	.st5{fill:#B2D2B4;stroke:#224652;stroke-width:0.75;stroke-linejoin:round;stroke-miterlimit:10;}
	.st6{fill:#B2D2B4;}
	.st7{fill:none;stroke:#224652;stroke-width:0.75;stroke-linecap:round;stroke-linejoin:round;stroke-miterlimit:10;}
	.st8{fill:none;stroke:#224652;stroke-linecap:round;stroke-linejoin:round;stroke-miterlimit:10;}
</style>
<g>
	<path class="st0" d="M87.56,75.27"/>
	<path class="st1" d="M102.26,25.68c0,7.71-6.26,13.97-13.97,13.96c-7.71,0-13.97-6.26-13.96-13.97c0-7.71,6.26-13.97,13.97-13.96
		C96.01,11.71,102.26,17.97,102.26,25.68z"/>
	<rect x="83.45" y="40.42" class="st2" width="9.67" height="9.67"/>
	<rect x="83.45" y="40.42" class="st3" width="9.67" height="9.67"/>
	<ellipse class="st4" cx="87.89" cy="126.44" rx="71.43" ry="72.9"/>
	<polygon class="st5" points="86.86,136.63 50.89,168.96 79.64,129.44 	"/>
	<polygon class="st6" points="89.12,118.71 124.75,89.98 96.8,125.41 	"/>
	<polygon class="st7" points="89.12,118.71 124.75,89.98 96.8,125.41 	"/>
	<path class="st6" d="M84.43,119.82c4.24-2.13,9.41-0.42,11.54,3.83c2.13,4.24,0.42,9.41-3.83,11.54
		c-4.24,2.13-9.41,0.42-11.54-3.83C78.48,127.12,80.19,121.95,84.43,119.82"/>
	<path class="st8" d="M84.43,119.82c4.24-2.13,9.41-0.42,11.54,3.83c2.13,4.24,0.42,9.41-3.83,11.54
		c-4.24,2.13-9.41,0.42-11.54-3.83C78.48,127.12,80.19,121.95,84.43,119.82z"/>
	<line class="st1" x1="88.66" y1="71.5" x2="88.65" y2="104.81"/>
	<line class="st1" x1="145.58" y1="127.74" x2="112.28" y2="127.73"/>
	<line class="st1" x1="30.09" y1="127.71" x2="63.39" y2="127.72"/>
	<line class="st1" x1="88.63" y1="148.85" x2="88.62" y2="182.16"/>
</g>
</svg>
