<?xml version="1.0" encoding="utf-8"?>
<!-- Generator: Adobe Illustrator 24.1.1, SVG Export Plug-In . SVG Version: 6.00 Build 0)  -->
<svg version="1.1" id="Layer_1" xmlns="http://www.w3.org/2000/svg" xmlns:xlink="http://www.w3.org/1999/xlink" x="0px" y="0px"
	 viewBox="0 0 200 200" style="enable-background:new 0 0 200 200;" xml:space="preserve" preserveAspectRatio="xMidYMid slice">
<style type="text/css">
	.st0{fill:#224651;}
	.st1{fill:#FFFFFF;}
	.st2{fill:#FFFFFF;stroke:#FFFFFF;stroke-width:0.25;stroke-miterlimit:10;}
</style>
<rect x="0" class="st0" width="200" height="200"/>
<g>
	<g>
		
			<image style="overflow:visible;opacity:0.48;" width="75" height="82" xlink:href="68CCDB5C.png"  transform="matrix(1 0 0 1 30 70)">
		</image>
		<g>
			<path class="st1" d="M70,103.6c-1.9,5.1-16.9,14.2-16.9,14.2s-3.7-16.2-1.7-21.2c1.9-5.1,7.6-7.6,12.8-5.6S71.9,98.5,70,103.6z"
				/>
		</g>
	</g>
	<g>
		<path class="st1" d="M95.8,89.2l2.3-3.6c0,0,1.8-3,3.4,0c1.6,3,10.9,21.5,10.9,21.5s0.6,1.5-0.8,1.5c-1.4,0-4.3,0-4.3,0
			s-0.6,0-1-0.8l-1.8-3.8h-5.9c0,0-1.5-0.3-0.5-1.6c1-1.3,3.5-4.8,3.5-4.8l-1.7-3.7l-9.6,14c0,0-0.6,0.8-1.3,0.8c-1,0-4.1,0-4.1,0
			s-1.8,0.1-0.6-1.5C85,106.2,95.8,89.2,95.8,89.2z"/>
		<path class="st1" d="M118.3,99.9c0,0-0.1,3.1,4.4,3.4c4.7,0.3,4.9-3.8,5-4.8c0.1-1,1.4-12.6,1.4-12.6s0-1.4,1-1.3
			c1,0.1,3.3,0,3.3,0s1.4,0,1.1,1.2c-0.3,1.2-1.5,14.6-1.5,14.6s-0.5,5.4-4.1,7.3c0,0-1.2,0.9-6,1c0,0-3.5,0.3-5.5-0.7
			c-2-1-4.4-3.4-4.5-6s1.5-15.9,1.5-15.9s0-1.4,1.2-1.4c1.2,0,3,0,3,0s1.2,0,1.1,1C119.6,86.6,118.3,99.9,118.3,99.9z"/>
		<path class="st1" d="M137.5,95.5c0,0,0-0.9,1-0.9c1,0,11.6,0,11.6,0s2.1-0.1,2.5-1.8c0.4-1.7-0.3-3.5-2.2-3.8
			c-1.9-0.3-9.1-0.1-9.1-0.1s-1,0.3-1.2-1c-0.3-1.2-1.1-2.9-1.1-2.9s-0.6-0.8,0.4-0.8s11.5-0.3,13.2,0.3c0,0,4.1,1.2,4.9,4.9
			c0.5,2.2,0.4,4-0.3,5.4c-0.7,1.4-2.4,4.1-6,4.2l3.5,8c0,0,0.6,1.4-0.9,1.4s-4.2,0-4.2,0s-0.5,0-0.8-0.4c-0.3-0.6-3.9-9-3.9-9H143
			l-1,8.6c0,0,0,0.8-0.7,0.8c-0.7,0-4.6,0-4.6,0s-0.9,0-0.7-1C136.3,106.5,137.5,95.5,137.5,95.5z"/>
		<path class="st1" d="M168.3,89.1l2.3-3.6c0,0,1.8-3,3.4,0c1.6,3,10.9,21.5,10.9,21.5s0.6,1.5-0.8,1.5s-4.3,0-4.3,0s-0.6,0-1-0.8
			l-1.8-3.8h-5.9c0,0-1.5-0.3-0.5-1.6c1-1.3,3.5-4.8,3.5-4.8l-1.7-3.7l-9.6,14c0,0-0.6,0.8-1.3,0.8c-1,0-4.1,0-4.1,0
			s-1.8,0.1-0.6-1.5C157.6,106.1,168.3,89.1,168.3,89.1z"/>
	</g>
	<path class="st2" d="M19.7,85c0,0,1.6-7.7,8.5-11.2c6.9-3.5,16-4.4,27.7,6.2c5.6,5.1,11.7,10,11.7,10s9.2,7.7,16.8,1.9
		c10.5-8.1,3.4-23.6-11.7-30.5c-25.6-11.6-42.8,1.8-48.6,9S14.4,87.4,15,97.6c1.9,33.5,35.4,36.4,35.4,36.4
		c23.5,1.9,34.2-12.5,35.4-14.4c1.9-2.9,2.4-4.4,2.9-5.7c1-2.8,0.1-3.4-2.4-3.4c-1.1,0-3.4-0.5-4.3,1c-0.3,0.5-1,1.6-1.4,2.4
		c-1.9,3.4-6.7,7.2-12.9,8.6c-6.2,1.4-12.5,0-16.8-4.3s-8.1-11.5-8.1-11.5L38,96.6c0,0-4.9-10-7.3-11.7S24.9,81.5,19.7,85z"/>
</g>
</svg>
