<?xml version="1.0" encoding="utf-8"?>
<!-- Generator: Adobe Illustrator 24.0.2, SVG Export Plug-In . SVG Version: 6.00 Build 0)  -->
<svg version="1.1" id="Layer_1" xmlns="http://www.w3.org/2000/svg" xmlns:xlink="http://www.w3.org/1999/xlink" x="0px" y="0px"
	 viewBox="0 0 133 162" style="enable-background:new 0 0 133 162;" xml:space="preserve">
<style type="text/css">
	.st0{fill:#E6F4E7;stroke:#E6F4E7;stroke-width:7;stroke-linecap:round;stroke-linejoin:round;stroke-miterlimit:10;}
	.st1{fill:#E6F4E7;stroke:#224651;stroke-width:0.75;stroke-miterlimit:10;}
	.st2{fill:none;stroke:#224651;stroke-width:8;stroke-linecap:round;stroke-linejoin:round;stroke-miterlimit:10;}
	.st3{fill:#224651;}
	.st4{fill:#E6F4E7;}
</style>
<g>
	<polygon class="st0" points="70.5,20.95 17.35,108.05 123.65,108.05 	"/>
	<path class="st1" d="M71.29,93.27L71.29,93.27c-3.18,0-5.76-2.58-5.76-5.76v0c0-3.18,2.58-5.76,5.76-5.76h0
		c3.18,0,5.76,2.58,5.76,5.76v0C77.05,90.69,74.47,93.27,71.29,93.27z"/>
	<polygon class="st2" points="71.67,29.41 28.87,103.55 114.47,103.55 	"/>
	<path class="st3" d="M71.29,78.28L71.29,78.28c-1.25,0-2.26-1.01-2.26-2.26V50.17c0-1.25,1.01-2.26,2.26-2.26h0
		c1.25,0,2.26,1.01,2.26,2.26v25.85C73.55,77.27,72.54,78.28,71.29,78.28z"/>
	<path class="st3" d="M70.57,83.85c0.02,0.06-0.38,0.16-0.85,0.47c-0.09,0.06-0.37,0.26-0.66,0.58c-0.22,0.25-0.57,0.65-0.7,1.28
		c-0.04,0.18-0.14,0.72,0.11,1.34c0.09,0.22,0.31,0.76,0.87,1.02c0.4,0.19,0.83,0.15,1.05,0.13c0.08-0.01,0.24-0.02,0.43-0.08
		c0.15-0.04,0.26-0.09,0.49-0.19c0.17-0.07,0.17-0.08,0.38-0.17c0.26-0.11,0.39-0.17,0.47-0.19c0.21-0.04,0.37-0.01,0.56,0.02
		c0.16,0.03,0.35,0.06,0.56,0.19c0.05,0.03,0.21,0.13,0.36,0.3c0.04,0.04,0.2,0.24,0.3,0.55c0.04,0.12,0.19,0.6-0.02,1.11
		c-0.13,0.31-0.34,0.48-0.66,0.75c-0.11,0.09-0.36,0.29-0.73,0.47c-0.09,0.04-0.42,0.2-0.9,0.3c-0.26,0.05-0.77,0.16-1.43,0.06
		c-0.22-0.03-0.91-0.16-1.62-0.66c-0.48-0.34-0.76-0.7-0.9-0.88c-0.46-0.6-0.64-1.15-0.68-1.26c-0.29-0.89-0.18-1.64-0.15-1.81
		c0.22-1.33,1.1-2.11,1.39-2.37c0.41-0.36,0.8-0.57,1-0.66c0.14-0.07,0.42-0.19,0.79-0.26C70.23,83.85,70.56,83.8,70.57,83.85z"/>
	<path class="st3" d="M71.15,85.97c0.12,0.07,0.37,0.22,0.66,0.18c0.06-0.01,0.12-0.03,0.25-0.08c0.25-0.09,0.31-0.14,0.43-0.18
		c0.19-0.06,0.35-0.02,0.57,0.02c0.11,0.02,0.38,0.08,0.66,0.27c0.36,0.25,0.52,0.56,0.64,0.8c0.04,0.08,0.2,0.41,0.27,0.86
		c0.06,0.35,0.03,0.6,0.06,0.6c0.04,0,0.13-0.39,0.16-0.76c0.06-0.92-0.28-1.65-0.39-1.87c-0.21-0.42-0.58-1.15-1.4-1.5
		c-0.14-0.06-0.82-0.34-1.56-0.1c-0.22,0.07-0.54,0.17-0.72,0.49C70.61,85,70.6,85.4,70.8,85.68C70.89,85.82,71.02,85.9,71.15,85.97
		z"/>
	<ellipse class="st4" cx="72.26" cy="89.53" rx="1.08" ry="1.03"/>
	<ellipse class="st4" cx="71.57" cy="85.26" rx="0.37" ry="0.39"/>
</g>
</svg>
